<svg width="46" height="46" viewBox="0 0 16 16" fill="none" xmlns="http://www.w3.org/2000/svg">
<g clip-path="url(#clip0_2_58)">
<path d="M14.25 12.067C14.5833 12.2594 14.5833 12.7406 14.25 12.933L10.5 15.0981C10.1667 15.2905 9.75 15.05 9.75 14.6651L9.75 10.3349C9.75 9.95004 10.1667 9.70947 10.5 9.90192L14.25 12.067Z" fill="#F1592A"/>
<path fill-rule="evenodd" clip-rule="evenodd" d="M8.75 12V9.46891C8.75 8.69911 9.58333 8.21799 10.25 8.60289L14.6438 11.1396C14.8684 10.8163 15 10.4235 15 10V5C15 3.89543 14.1046 3 13 3H3C1.89543 3 1 3.89543 1 5V10C1 11.1046 1.89543 12 3 12H8.75Z" fill="#F0F0F0"/>
<path fill-rule="evenodd" clip-rule="evenodd" d="M15.5119 11.6409C15.5079 11.6386 15.504 11.6363 15.5 11.634L14.6438 11.1396C14.8684 10.8163 15 10.4235 15 10V5C15 3.89543 14.1046 3 13 3H3C1.89543 3 1 3.89543 1 5V10C1 11.1046 1.89543 12 3 12H8.75V13H3C1.34315 13 0 11.6569 0 10V5C0 3.34315 1.34315 2 3 2H13C14.6569 2 16 3.34315 16 5V10C16 10.6057 15.8205 11.1694 15.5119 11.6409Z" fill="#F1592A"/>
<line x1="4" y1="5.5" x2="12" y2="5.5" stroke="#F1592A"/>
<line x1="4" y1="7.5" x2="12" y2="7.5" stroke="#F1592A"/>
<line x1="4" y1="9.5" x2="7" y2="9.5" stroke="#F1592A"/>
</g>
<defs>
<clipPath id="clip0_2_58">
<rect width="16" height="16" fill="white" transform="matrix(1 0 0 -1 0 16)"/>
</clipPath>
</defs>
</svg>
